<svg xmlns="http://www.w3.org/2000/svg" viewBox="0 0 48 48"><defs><style>.cls-1{fill:#42a5f5;}.cls-2{fill:#424242;}</style></defs><title>Edit code</title><g id="Edit_code" data-name="Edit code"><path class="cls-1" d="M40,0H4A4,4,0,0,0,0,4V38a4,4,0,0,0,4,4H23.35a13.78,13.78,0,0,1-.77-2H4a2,2,0,0,1-2-2V8H42V23.35a12.91,12.91,0,0,1,2,1.17V4A4,4,0,0,0,40,0ZM5,5A1,1,0,0,1,5,3,1,1,0,0,1,5,5ZM9,5A1,1,0,0,1,9,3,1,1,0,0,1,9,5Zm4,0a1,1,0,0,1,0-2A1,1,0,0,1,13,5ZM39,5H27a1,1,0,0,1,0-2H39A1,1,0,0,1,39,5Z"/><polygon class="cls-1" points="31.11 38.77 33.23 40.89 30.05 41.95 31.11 38.77"/><path class="cls-1" d="M41.37,33.46l-.71.71-2.83-2.83.71-.71a2,2,0,0,1,2.83,2.83Z"/><rect class="cls-1" x="32.71" y="34.29" width="6" height="4" transform="translate(-15.2 35.88) rotate(-45)"/><path class="cls-2" d="M36,48A12,12,0,1,1,48,36,12,12,0,0,1,36,48Zm0-22A10,10,0,1,0,46,36,10,10,0,0,0,36,26Z"/><path class="cls-1" d="M20.05,18.68l2-6a1,1,0,0,1,1.9.64l-2,6A1,1,0,0,1,20.05,18.68Z"/><path class="cls-1" d="M26,19a1,1,0,0,1-.71-1.71L26.59,16l-1.3-1.29a1,1,0,0,1,1.42-1.42l2,2a1,1,0,0,1,0,1.42C26.53,18.89,26.54,19,26,19Z"/><path class="cls-1" d="M18,19c-.54,0-.57-.15-2.71-2.29a1,1,0,0,1,0-1.42l2-2a1,1,0,0,1,1.42,1.42L17.41,16l1.3,1.29A1,1,0,0,1,18,19Z"/><path class="cls-2" d="M26,25H6a1,1,0,0,1,0-2H26A1,1,0,0,1,26,25Z"/><path class="cls-2" d="M21,37H6a1,1,0,0,1,0-2H21A1,1,0,0,1,21,37Z"/><path class="cls-2" d="M21,29H6a1,1,0,0,1,0-2H21A1,1,0,0,1,21,29Z"/><path class="cls-2" d="M21,33H6a1,1,0,0,1,0-2H21A1,1,0,0,1,21,33Z"/></g></svg>