<svg xmlns="http://www.w3.org/2000/svg" viewBox="0 0 48 48"><defs><style>.cls-1{fill:#424242;}.cls-2{fill:#42a5f5;}</style></defs><title>Structure</title><g id="Structure"><path class="cls-1" d="M39,38a1,1,0,0,0,0-2H36V30h3a1,1,0,0,0,0-2H36V18.82A3,3,0,1,0,32.18,15H26.82A3,3,0,0,0,25,13.18V9.58l6.5-3.71a1,1,0,0,0,0-1.74c-7.7-4.4-7.33-4.38-8-4L16.73,4H10A1,1,0,0,0,9,5V34a1,1,0,0,0,2,0V6h5.73L23,9.58v3.6a3,3,0,0,0,0,5.64V22H19c-.72,0-.75.32-2.83,3.45a1,1,0,0,0,0,1.1l2,3c.42.64.24.45,10.83.45.72,0,.75-.32,2.83-3.45a1,1,0,0,0,0-1.1l-2-3C29.41,21.81,29,22,25,22V18.82A3,3,0,0,0,26.82,17h5.36A3,3,0,0,0,34,18.82V36H31a1,1,0,0,0,0,2h3v7a1,1,0,0,0,1,1h4a1,1,0,0,0,0-2H36V38ZM29.8,26l-1.34,2H19.54L18.2,26l1.34-2h8.92ZM35,15a1,1,0,0,1,0,2A1,1,0,0,1,35,15ZM24,2.15,29,5,24,7.85,19,5ZM24,17a1,1,0,0,1,0-2A1,1,0,0,1,24,17Z"/><path class="cls-2" d="M18,34H2a2,2,0,0,0-2,2V46a2,2,0,0,0,2,2H18a2,2,0,0,0,2-2V36A2,2,0,0,0,18,34ZM6.71,42.29A1,1,0,0,1,6,44c-.54,0-.57-.15-2.71-2.29a1,1,0,0,1,0-1.42l2-2a1,1,0,0,1,1.42,1.42L5.41,41Zm5.24-4-2,6a1,1,0,0,1-1.9-.64l2-6A1,1,0,0,1,12,38.32Zm4.76,3.39C14.53,43.89,14.54,44,14,44a1,1,0,0,1-.71-1.71L14.59,41l-1.3-1.29a1,1,0,0,1,1.42-1.42l2,2A1,1,0,0,1,16.71,41.71Z"/><rect class="cls-2" x="38" y="26" width="10" height="6" rx="1"/><rect class="cls-2" x="38" y="34" width="10" height="6" rx="1"/><rect class="cls-2" x="38" y="42" width="10" height="6" rx="1"/><rect class="cls-2" x="22" y="34" width="10" height="6" rx="1"/></g></svg>