<svg xmlns="http://www.w3.org/2000/svg" viewBox="0 0 48 48"><defs><style>.cls-1{fill:#42a5f5;}.cls-2{fill:#424242;}</style></defs><title>Dashboard</title><g id="Dashboard"><path class="cls-1" d="M18,30l5.73-5.73a2,2,0,0,1,2.67-.15l2.2,1.76a2,2,0,0,0,2.67-.15l3-3a2,2,0,0,1,3.08.3L42,30"/><path class="cls-1" d="M45,0H3A3,3,0,0,0,0,3V45a3,3,0,0,0,3,3H45a3,3,0,0,0,3-3V3A3,3,0,0,0,45,0ZM29,3H43a1,1,0,0,1,0,2H29A1,1,0,0,1,29,3ZM9,3A1,1,0,0,1,9,5,1,1,0,0,1,9,3ZM5,3A1,1,0,0,1,5,5,1,1,0,0,1,5,3Zm7,43H3a1,1,0,0,1-1-1V8H12ZM13,5a1,1,0,0,1,0-2A1,1,0,0,1,13,5ZM46,45a1,1,0,0,1-1,1H14V8H46Z"/><path class="cls-2" d="M9,20H5a1,1,0,0,1,0-2H9A1,1,0,0,1,9,20Z"/><path class="cls-2" d="M9,24H5a1,1,0,0,1,0-2H9A1,1,0,0,1,9,24Z"/><path class="cls-2" d="M9,28H5a1,1,0,0,1,0-2H9A1,1,0,0,1,9,28Z"/><path class="cls-2" d="M9,32H5a1,1,0,0,1,0-2H9A1,1,0,0,1,9,32Z"/><path class="cls-2" d="M9,36H5a1,1,0,0,1,0-2H9A1,1,0,0,1,9,36Z"/><path class="cls-2" d="M9,40H5a1,1,0,0,1,0-2H9A1,1,0,0,1,9,40Z"/><path class="cls-2" d="M9,44H5a1,1,0,0,1,0-2H9A1,1,0,0,1,9,44Z"/><circle class="cls-1" cx="7" cy="13" r="3"/><rect class="cls-1" x="17" y="10" width="12" height="6" rx="1"/><rect class="cls-1" x="31" y="10" width="12" height="6" rx="1"/><path class="cls-2" d="M42,31H18a1,1,0,0,1-1-1V20a1,1,0,0,1,2,0v9H42A1,1,0,0,1,42,31Z"/><path class="cls-2" d="M23,40H17a1,1,0,0,1,0-2h6A1,1,0,0,1,23,40Z"/><path class="cls-2" d="M23,44H17a1,1,0,0,1,0-2h6A1,1,0,0,1,23,44Z"/><path class="cls-2" d="M33,40H27a1,1,0,0,1,0-2h6A1,1,0,0,1,33,40Z"/><path class="cls-2" d="M33,44H27a1,1,0,0,1,0-2h6A1,1,0,0,1,33,44Z"/><path class="cls-2" d="M43,40H37a1,1,0,0,1,0-2h6A1,1,0,0,1,43,40Z"/><path class="cls-2" d="M23,36H17a1,1,0,0,1,0-2h6A1,1,0,0,1,23,36Z"/><path class="cls-2" d="M33,36H27a1,1,0,0,1,0-2h6A1,1,0,0,1,33,36Z"/><path class="cls-2" d="M43,36H37a1,1,0,0,1,0-2h6A1,1,0,0,1,43,36Z"/><path class="cls-2" d="M43,44H37a1,1,0,0,1,0-2h6A1,1,0,0,1,43,44Z"/></g></svg>